<?xml version="1.0" standalone="no"?>
<!DOCTYPE svg PUBLIC "-//W3C//DTD SVG 20010904//EN"
 "http://www.w3.org/TR/2001/REC-SVG-20010904/DTD/svg10.dtd">
<svg version="1.0" xmlns="http://www.w3.org/2000/svg"
 width="250.000000pt" height="250.000000pt" viewBox="0 0 250.000000 250.000000"
 preserveAspectRatio="xMidYMid meet">

<g transform="translate(0.000000,250.000000) scale(0.100000,-0.100000)"
fill="#e84c3d" stroke="#ffffff">
<path d="M0 1250 l0 -1250 1250 0 1250 0 0 1250 0 1250 -1250 0 -1250 0 0
-1250z m880 176 c85 -151 158 -272 161 -270 3 2 75 125 160 274 l154 270 63 0
62 0 0 -445 0 -445 -65 0 -65 0 -2 309 -3 309 -131 -226 -130 -227 -44 0 -44
0 -131 226 -130 226 -3 -309 -2 -308 -65 0 -65 0 0 445 0 445 63 0 62 -1 155
-273z m870 8 l0 -46 37 32 c49 43 92 60 153 60 l50 0 0 -60 c0 -56 -2 -60 -23
-60 -76 0 -162 -52 -196 -117 -7 -14 -11 -95 -11 -227 l0 -206 -65 0 -65 0 0
335 0 335 60 0 60 0 0 -46z"/>
</g>
</svg>
